#!OML:ASF F:\VICON\USERDATA\INSTALL\rory3\rory3.ASF
:FULLY-SPECIFIED
:DEGREES
2308
root 1.66535 17.2514 -0.580951 381.128 -18.9187 368.566
lowerback 18.6149 -1.49517 2.99671
upperback 7.98696 -1.34012 5.52855
thorax -1.75084 -0.738993 4.44399
lowerneck -3.68486 -5.40797 -10.2123
upperneck 36.2179 -6.94973 1.35094
head 13.2445 -4.19143 1.49623
rclavicle 2.54444e-014 -8.74653e-014
rhumerus -38.2929 41.154 -77.2375
rradius 86.6255
rwrist 38.2824
rhand -48.5722 26.0855
rfingers 7.12502
rthumb -21.2181 -362.773
lclavicle 2.54444e-014 -8.74653e-014
lhumerus -23.663 -26.8351 95.7556
lradius 52.998
lwrist -8.81815
lhand -22.4463 7.04917
lfingers 7.12502
lthumb 3.97782 36.9918
rfemur -53.0558 -10.8219 8.44559
rtibia 44.7549
rfoot -10.6574 -1.03511
rtoes -1.88207
lfemur -46.2886 6.18201 -20.8355
ltibia 43.1425
lfoot -6.80381 -1.93437
ltoes -22.4555
2309
root 1.68816 17.2086 -0.632263 381.344 -18.5338 368.567
lowerback 19.0106 -1.43995 3.07913
upperback 8.11231 -1.23695 5.50002
thorax -1.82777 -0.686251 4.358
lowerneck -3.79504 -5.46072 -10.323
upperneck 36.0582 -7.09958 1.74726
head 13.2287 -4.21694 1.6503
rclavicle -3.65764e-014 4.77083e-015
rhumerus -38.6173 41.4141 -77.4453
rradius 86.489
rwrist 39.1538
rhand -49.9916 26.1135
rfingers 7.12502
rthumb -22.5811 -362.586
lclavicle -3.65764e-014 4.77083e-015
lhumerus -23.2088 -27.953 95.3566
lradius 52.9572
lwrist -9.63325
lhand -22.6219 6.76821
lfingers 7.12502
lthumb 3.80826 36.7139
rfemur -53.7929 -11.1294 8.56215
rtibia 45.4778
rfoot -10.7809 -1.12095
rtoes -1.48282
lfemur -46.8852 6.60235 -21.2306
ltibia 43.1986
lfoot -7.23202 -2.31463
ltoes -19.9009
2310
root 1.71146 17.174 -0.679331 381.544 -18.2253 368.446
lowerback 19.4741 -1.38164 3.19316
upperback 8.25746 -1.1207 5.50959
thorax -1.91665 -0.628005 4.29368
lowerneck -3.93689 -5.47973 -10.3201
upperneck 35.8565 -7.13969 1.9109
head 13.1776 -4.20663 1.70635
rclavicle -3.02153e-014 -7.31528e-014
rhumerus -38.9277 41.7759 -77.6745
rradius 86.2397
rwrist 39.6926
rhand -51.0829 26.5069
rfingers 7.12502
rthumb -23.6281 -362.061
lclavicle -3.02153e-014 -7.31528e-014
lhumerus -22.7802 -28.8774 94.9606
lradius 52.9762
lwrist -10.7437
lhand -22.8769 6.40996
lfingers 7.12502
lthumb 3.56201 36.3599
rfemur -54.4957 -11.3383 8.77818
rtibia 46.2449
rfoot -10.926 -1.2121
rtoes -2.12899
lfemur -47.4936 7.1066 -21.5555
ltibia 43.5071
lfoot -7.6466 -2.304
ltoes -18.922
2311
root 1.7315 17.1116 -0.744786 382.007 -17.6611 368.311
lowerback 19.8911 -1.34332 3.35086
upperback 8.20813 -1.00616 5.54605
thorax -2.19022 -0.567769 4.23454
lowerneck -3.91629 -5.55057 -10.0878
upperneck 35.7603 -7.23213 1.82418
head 13.1203 -4.22008 1.62301
rclavicle -3.49861e-014 -4.92986e-014
rhumerus -39.4165 42.0187 -78.0581
rradius 85.8253
rwrist 40.093
rhand -51.7608 26.9141
rfingers 7.12502
rthumb -24.2782 -361.569
lclavicle -3.49861e-014 -4.92986e-014
lhumerus -22.5809 -30.0148 94.5765
lradius 53.1459
lwrist -11.8161
lhand -23.4508 6.17622
lfingers 7.12502
lthumb 3.00779 36.1348
rfemur -55.539 -11.571 9.05434
rtibia 47.0854
rfoot -11.0984 -1.52186
rtoes -1.95486
lfemur -48.531 7.63794 -21.9286
ltibia 43.988
lfoot -8.06682 -2.42223
ltoes -20.7393
2312
root 1.75106 17.036 -0.80963 382.284 -17.0882 368.331
lowerback 20.4167 -1.25063 3.51792
upperback 8.24463 -0.822118 5.46189
thorax -2.43147 -0.471855 4.02483
lowerneck -3.86282 -5.70215 -9.73806
upperneck 35.5386 -7.50976 1.91648
head 13.014 -4.27619 1.56815
rclavicle -2.70347e-014 3.65764e-014
rhumerus -39.9231 41.8701 -78.4318
rradius 85.6057
rwrist 40.522
rhand -52.3273 27.4708
rfingers 7.12502
rthumb -24.8212 -360.938
lclavicle -2.70347e-014 3.65764e-014
lhumerus -22.1927 -31.64 94.0407
lradius 53.3393
lwrist -12.5174
lhand -23.9144 5.89644
lfingers 7.12502
lthumb 2.56005 35.8608
rfemur -56.4863 -11.8436 9.16012
rtibia 47.9803
rfoot -11.3725 -1.82515
rtoes -1.64246
lfemur -49.4589 8.13348 -22.4695
ltibia 44.5064
lfoot -8.58176 -2.84466
ltoes -19.9708
2313
root 1.77709 16.9802 -0.856644 382.545 -16.7603 368.508
lowerback 20.5792 -1.17934 3.45645
upperback 8.39062 -0.743139 5.35424
thorax -2.3614 -0.431846 3.92829
lowerneck -3.92686 -5.76022 -9.58871
upperneck 35.2776 -7.61603 2.02622
head 12.9158 -4.28275 1.57205
rclavicle 1.43125e-014 2.54444e-014
rhumerus -40.3511 42.0317 -78.6007
rradius 85.6203
rwrist 40.9353
rhand -53.5624 27.853
rfingers 7.12502
rthumb -26.0044 -360.388
lclavicle 1.43125e-014 2.54444e-014
lhumerus -21.7914 -32.9537 93.5616
lradius 53.6077
lwrist -13.2213
lhand -24.4095 5.95562
lfingers 7.12502
lthumb 2.0819 35.9252
rfemur -57.4472 -12.2625 9.13581
rtibia 48.8827
rfoot -11.4941 -1.86214
rtoes -2.12336
lfemur -50.3003 8.59181 -23.2396
ltibia 44.9919
lfoot -9.10088 -3.2226
ltoes -17.5736
